<?xml version="1.0" encoding="UTF-8"?>
<svg width="32" height="32" viewBox="0 0 32 32" fill="none" xmlns="http://www.w3.org/2000/svg">
  <rect width="32" height="32" rx="6" fill="#1976D2"/>
  <path d="M16 7C12 7 9 10 9 14C9 15.3 9.4 16.4 10 17.4L9 21L12.6 20C13.6 20.6 14.8 21 16 21C20 21 23 18 23 14C23 10 20 7 16 7Z" fill="white"/>
  <path d="M14 13H12V16H14V13Z" fill="#1976D2"/>
  <path d="M17 13H15V16H17V13Z" fill="#1976D2"/>
  <path d="M20 13H18V16H20V13Z" fill="#1976D2"/>
  <path d="M23 23H9C8.4 23 8 23.4 8 24V25C8 25.6 8.4 26 9 26H23C23.6 26 24 25.6 24 25V24C24 23.4 23.6 23 23 23Z" fill="white"/>
</svg>