<?xml version="1.0" encoding="UTF-8"?>
<svg width="512" height="512" viewBox="0 0 512 512" fill="none" xmlns="http://www.w3.org/2000/svg">
  <rect width="512" height="512" rx="100" fill="#1976D2"/>
  <path d="M256 110C192.1 110 140 162.1 140 226C140 244.3 144.2 261.7 151.7 277.4L140 340L202.6 328.3C218.3 335.8 236.5 340 256 340C319.9 340 372 287.9 372 224C372 160.1 319.9 110 256 110Z" fill="white"/>
  <path d="M222 205H188V265H222V205Z" fill="#1976D2"/>
  <path d="M285 205H251V265H285V205Z" fill="#1976D2"/>
  <path d="M348 205H314V265H348V205Z" fill="#1976D2"/>
  <path d="M388 365H124C116.3 365 110 371.3 110 379V402C110 409.7 116.3 416 124 416H388C395.7 416 402 409.7 402 402V379C402 371.3 395.7 365 388 365Z" fill="white"/>
</svg>